<svg xmlns="http://www.w3.org/2000/svg" xmlns:xlink="http://www.w3.org/1999/xlink" width="100%" viewBox="0 0 1920 860" style="min-width: 1920px;" class="show_when_scroll_in_view">
  <defs>
    <clipPath id="clip-path-goodnotes-for-business">
      <rect id="Frame_p3" data-name="Frame p3" width="1920" height="860" transform="translate(0 2427)" fill="rgba(255,255,255,0.3)"></rect>
    </clipPath>
  </defs>
  <g id="stroke_pricing_business" transform="translate(0 -2427)" clip-path="url(#clip-path-goodnotes-for-business)">
    <path class="main_path path_with_animation_reverse" d="M802.142,226.86c-71.883,45.932-59.267,48.456-129.841,96.374-54.621,37.089-118.517,63.147-184.549,63.677-20.286.163-113.806-4.215-172.993-80.366-8.117-10.443-77.985-103.366-30.339-190.663,29.536-54.118,93.088-86.217,150.761-79.315,13.412,1.606,56.809,6.8,81.86,44.117,20.832,31.034,19.681,70.434,6.252,98.982-18.4,39.123-57.416,58.116-84.31,67.171-110.855,37.331-200.407-24.226-245.071-62.318C107.795,107.706,88.087,73.648,0,16.915S-143.686-57.164-254.71-37.778" transform="translate(1372.408 3113.401) rotate(-78)" fill="none" stroke="rgba(255,255,255,0.3)" stroke-miterlimit="10" stroke-width="25"></path>
  </g>
</svg>